<svg width="29.333252" height="26.666748" viewBox="0 0 29.3333 26.6667" fill="none" xmlns="http://www.w3.org/2000/svg" xmlns:xlink="http://www.w3.org/1999/xlink">
	<desc>
			Created with Pixso.
	</desc>
	<defs/>
	<path id="Shape" d="M16 21.33L25.33 21.33C27.54 21.33 29.33 19.54 29.33 17.33L29.33 4C29.33 1.79 27.54 0 25.33 0L4 0C1.79 0 0 1.79 0 4L0 17.33C0 19.54 1.79 21.33 4 21.33L13.33 21.33L13.33 24L9.33 24C8.59 24 8 24.59 8 25.33C8 26.06 8.59 26.66 9.33 26.66L20 26.66C20.73 26.66 21.33 26.06 21.33 25.33C21.33 24.59 20.73 24 20 24L16 24L16 21.33ZM4 2.66C3.26 2.66 2.66 3.26 2.66 4L2.66 17.33C2.66 18.06 3.26 18.66 4 18.66L25.33 18.66C26.06 18.66 26.66 18.06 26.66 17.33L26.66 4C26.66 3.26 26.06 2.66 25.33 2.66L4 2.66Z" fill="#292F36" fill-opacity="1.000000" fill-rule="evenodd"/>
</svg>
