<svg width="40.000000" height="48.000000" viewBox="0 0 40 48" fill="none" xmlns="http://www.w3.org/2000/svg" xmlns:xlink="http://www.w3.org/1999/xlink">
	<desc>
			Created with Pixso.
	</desc>
	<defs/>
	<path id="Vector" d="M0 0L4 42L20 48L36 42L40 0L0 0ZM6.66 6L33.3 6L32.78 12L21.39 18L26.24 18L32 18L32.24 18L31.22 30.01L31.26 30L30.71 36L20 40L9.26 36L8.6 28L14.65 28L14.96 32.06L20 33.8L25.04 32.1L25.73 24L8.26 24L7.74 18L19.56 12L7.21 12L6.66 6Z" fill="#FFFFFF" fill-opacity="1.000000" fill-rule="nonzero"/>
</svg>
