<svg width="17.500000" height="13.828125" viewBox="0 0 17.5 13.8281" fill="none" xmlns="http://www.w3.org/2000/svg" xmlns:xlink="http://www.w3.org/1999/xlink">
	<desc>
			Created with Pixso.
	</desc>
	<defs/>
	<path id="Vector" d="M6.66 0L6.17 0.05C6.17 0.05 3.98 0.29 2.38 1.58L2.36 1.58L2.34 1.6C1.98 1.93 1.82 2.33 1.58 2.92C1.33 3.52 1.07 4.27 0.83 5.11C0.37 6.79 0 8.82 0 10.68L0 10.83L0.07 10.99C0.65 12.01 1.68 12.65 2.63 13.1C3.58 13.55 4.41 13.78 4.98 13.8L5.35 13.82L5.54 13.49L6.23 12.28C6.95 12.44 7.79 12.55 8.75 12.55C9.7 12.55 10.54 12.44 11.26 12.28L11.95 13.49L12.14 13.82L12.51 13.8C13.08 13.78 13.91 13.55 14.86 13.1C15.81 12.65 16.84 12.01 17.42 10.99L17.5 10.83L17.5 10.68C17.5 8.82 17.12 6.79 16.66 5.11C16.42 4.27 16.16 3.52 15.91 2.92C15.67 2.33 15.51 1.93 15.15 1.6L15.13 1.58L15.11 1.58C13.51 0.29 11.32 0.05 11.32 0.05L10.83 0L10.66 0.44C10.66 0.44 10.48 0.9 10.37 1.42C9.66 1.33 9.08 1.3 8.75 1.3C8.41 1.3 7.83 1.33 7.12 1.42C7.01 0.9 6.83 0.44 6.83 0.44L6.66 0ZM5.8 1.42C5.82 1.51 5.85 1.58 5.87 1.66C5.07 1.86 4.2 2.16 3.41 2.65L4.08 3.71C5.7 2.7 8.03 2.55 8.75 2.55C9.46 2.55 11.79 2.7 13.41 3.71L14.08 2.65C13.29 2.16 12.42 1.86 11.62 1.66C11.64 1.58 11.67 1.51 11.69 1.42C12.28 1.54 13.39 1.81 14.31 2.53C14.31 2.54 14.55 2.9 14.76 3.41C14.98 3.94 15.22 4.65 15.44 5.44C15.87 6.97 16.2 8.83 16.23 10.46C15.83 11.06 15.1 11.61 14.33 11.97C13.66 12.28 13.12 12.4 12.81 12.46L12.5 11.93C12.68 11.86 12.86 11.78 13.02 11.71C13.98 11.29 14.51 10.83 14.51 10.83L13.69 9.9C13.69 9.9 13.33 10.22 12.51 10.58C11.69 10.94 10.44 11.3 8.75 11.3C7.05 11.3 5.8 10.94 4.98 10.58C4.16 10.22 3.8 9.9 3.8 9.9L2.98 10.83C2.98 10.83 3.51 11.29 4.47 11.71C4.63 11.78 4.81 11.86 5 11.93L4.68 12.46C4.37 12.4 3.83 12.28 3.16 11.97C2.39 11.61 1.66 11.06 1.26 10.46C1.29 8.83 1.62 6.97 2.05 5.44C2.27 4.65 2.51 3.94 2.73 3.41C2.94 2.9 3.18 2.54 3.18 2.53C4.1 1.81 5.21 1.54 5.8 1.42ZM6.56 5.68C6.07 5.68 5.65 5.95 5.39 6.3C5.12 6.65 5 7.08 5 7.55C5 8.02 5.12 8.45 5.39 8.8C5.65 9.15 6.07 9.43 6.56 9.43C7.04 9.43 7.47 9.15 7.73 8.8C7.99 8.45 8.12 8.02 8.12 7.55C8.12 7.08 7.99 6.65 7.73 6.3C7.47 5.95 7.04 5.68 6.56 5.68ZM10.93 5.68C10.45 5.68 10.02 5.95 9.76 6.3C9.5 6.65 9.37 7.08 9.37 7.55C9.37 8.02 9.5 8.45 9.76 8.8C10.02 9.15 10.45 9.43 10.93 9.43C11.42 9.43 11.84 9.15 12.1 8.8C12.37 8.45 12.5 8.02 12.5 7.55C12.5 7.08 12.37 6.65 12.1 6.3C11.84 5.95 11.42 5.68 10.93 5.68ZM6.56 6.93C6.59 6.93 6.64 6.94 6.71 7.05C6.79 7.15 6.87 7.33 6.87 7.55C6.87 7.77 6.79 7.96 6.71 8.06C6.64 8.17 6.59 8.18 6.56 8.18C6.52 8.18 6.48 8.17 6.4 8.06C6.32 7.96 6.25 7.77 6.25 7.55C6.25 7.33 6.32 7.15 6.4 7.05C6.48 6.94 6.52 6.93 6.56 6.93ZM10.93 6.93C10.97 6.93 11.01 6.94 11.09 7.05C11.17 7.15 11.25 7.33 11.25 7.55C11.25 7.77 11.17 7.96 11.09 8.06C11.01 8.17 10.97 8.18 10.93 8.18C10.9 8.18 10.85 8.17 10.78 8.06C10.7 7.96 10.62 7.77 10.62 7.55C10.62 7.33 10.7 7.15 10.78 7.05C10.85 6.94 10.9 6.93 10.93 6.93Z" fill="#12F7D6" fill-opacity="1.000000" fill-rule="nonzero"/>
</svg>
