<svg width="20.000000" height="20.000000" viewBox="0 0 20 20" fill="none" xmlns="http://www.w3.org/2000/svg" xmlns:xlink="http://www.w3.org/1999/xlink">
	<desc>
			Created with Pixso.
	</desc>
	<defs/>
	<path id="Shape" d="M10 0C10.55 0 11 0.44 11 1L11 10.58L14.29 7.29C14.68 6.9 15.31 6.9 15.7 7.29C16.09 7.68 16.09 8.31 15.7 8.7L10.7 13.7C10.31 14.09 9.68 14.09 9.29 13.7L4.29 8.7C3.9 8.31 3.9 7.68 4.29 7.29C4.68 6.9 5.31 6.9 5.7 7.29L9 10.58L9 1C9 0.44 9.44 0 10 0ZM2 13C2 12.44 1.55 12 1 12C0.44 12 0 12.44 0 13L0 17C0 17.79 0.31 18.55 0.87 19.12C1.44 19.68 2.2 20 3 20L17 20C17.79 20 18.55 19.68 19.12 19.12C19.68 18.55 20 17.79 20 17L20 13C20 12.44 19.55 12 19 12C18.44 12 18 12.44 18 13L18 17C18 17.26 17.89 17.51 17.7 17.7C17.51 17.89 17.26 18 17 18L3 18C2.73 18 2.48 17.89 2.29 17.7C2.1 17.51 2 17.26 2 17L2 13Z" fill="#292F36" fill-opacity="1.000000" fill-rule="evenodd"/>
</svg>
