<svg width="12.833496" height="10.500000" viewBox="0 0 12.8335 10.5" fill="none" xmlns="http://www.w3.org/2000/svg" xmlns:xlink="http://www.w3.org/1999/xlink">
	<desc>
			Created with Pixso.
	</desc>
	<defs/>
	<path id="Shape" d="M0 1.73C0 1.74 0 1.75 0 1.75L0 8.75C0 9.71 0.78 10.5 1.75 10.5L11.08 10.5C12.04 10.5 12.83 9.71 12.83 8.75L12.83 1.75C12.83 1.75 12.83 1.74 12.83 1.73C12.82 0.78 12.04 0 11.08 0L1.75 0C0.78 0 0 0.78 0 1.73ZM1.22 1.48C1.32 1.29 1.52 1.16 1.75 1.16L11.08 1.16C11.3 1.16 11.5 1.29 11.6 1.48L6.41 5.12L1.22 1.48ZM11.66 2.87L11.66 8.75C11.66 9.06 11.4 9.33 11.08 9.33L1.75 9.33C1.43 9.33 1.16 9.06 1.16 8.75L1.16 2.87L6.08 6.31C6.28 6.45 6.55 6.45 6.75 6.31L11.66 2.87Z" fill="#12F7D6" fill-opacity="1.000000" fill-rule="evenodd"/>
</svg>
