<svg width="22.000000" height="22.000000" viewBox="0 0 22 22" fill="none" xmlns="http://www.w3.org/2000/svg" xmlns:xlink="http://www.w3.org/1999/xlink">
	<desc>
			Created with Pixso.
	</desc>
	<defs/>
	<path id="Shape" d="M21.7 0.29C21.93 0.51 22.02 0.81 21.99 1.11C21.98 1.19 21.96 1.27 21.93 1.35L14.94 21.33C14.8 21.71 14.45 21.98 14.04 21.99C13.63 22.01 13.25 21.78 13.08 21.4L9.24 12.75L0.59 8.91C0.21 8.74 -0.02 8.36 0 7.95C0.01 7.54 0.28 7.19 0.66 7.05L20.64 0.06C20.72 0.03 20.8 0.01 20.89 0C20.95 -0.01 21.01 -0.01 21.07 0C21.3 0.01 21.53 0.11 21.7 0.29ZM17.19 3.39L3.71 8.11L9.77 10.8L17.19 3.39ZM11.19 12.22L18.6 4.8L13.88 18.28L11.19 12.22Z" fill="#292F36" fill-opacity="1.000000" fill-rule="evenodd"/>
</svg>
