<svg width="16.666748" height="16.255524" viewBox="0 0 16.6667 16.2555" fill="none" xmlns="http://www.w3.org/2000/svg" xmlns:xlink="http://www.w3.org/1999/xlink">
	<desc>
			Created with Pixso.
	</desc>
	<defs/>
	<path id="Vector" d="M8.33 0C6.35 7.62e-5 4.44 0.7 2.93 1.98C1.42 3.26 0.42 5.04 0.1 6.99C-0.21 8.95 0.17 10.95 1.2 12.64C2.22 14.34 3.82 15.61 5.69 16.23C6.11 16.31 6.27 16.06 6.27 15.84C6.27 15.64 6.26 14.98 6.26 14.29C4.16 14.67 3.62 13.78 3.45 13.31C3.27 12.85 2.98 12.45 2.6 12.13C2.31 11.97 1.89 11.59 2.59 11.58C2.86 11.61 3.11 11.7 3.33 11.85C3.56 12 3.74 12.2 3.87 12.43C3.98 12.64 4.14 12.82 4.32 12.96C4.5 13.11 4.72 13.22 4.94 13.28C5.17 13.34 5.4 13.36 5.63 13.34C5.87 13.31 6.09 13.23 6.3 13.12C6.33 12.7 6.52 12.3 6.83 12.01C4.97 11.8 3.04 11.08 3.04 7.89C3.03 7.06 3.33 6.26 3.89 5.65C3.64 4.93 3.67 4.14 3.97 3.44C3.97 3.44 4.67 3.22 6.27 4.3C7.63 3.92 9.07 3.92 10.43 4.3C12.03 3.21 12.72 3.44 12.72 3.44C13.03 4.14 13.06 4.93 12.81 5.65C13.37 6.26 13.68 7.06 13.66 7.89C13.66 11.09 11.71 11.8 9.86 12.01C10.06 12.21 10.21 12.45 10.31 12.72C10.41 12.98 10.44 13.26 10.42 13.55C10.42 14.66 10.41 15.56 10.41 15.84C10.41 16.06 10.57 16.32 10.98 16.23C12.86 15.6 14.45 14.33 15.47 12.63C16.49 10.94 16.87 8.94 16.55 6.99C16.23 5.04 15.23 3.26 13.72 1.98C12.22 0.7 10.31 0 8.33 0Z" fill="#12F7D6" fill-opacity="1.000000" fill-rule="nonzero"/>
</svg>
