<svg width="43.125000" height="48.062500" viewBox="0 0 43.125 48.0625" fill="none" xmlns="http://www.w3.org/2000/svg" xmlns:xlink="http://www.w3.org/1999/xlink">
	<desc>
			Created with Pixso.
	</desc>
	<defs/>
	<path id="Vector" d="M0 0L0.18 2.18L3.68 41.75L3.81 43.12L5.12 43.5L21 47.93L21.5 48.06L22.06 47.93L37.93 43.56L39.25 43.18L39.37 41.81L42.93 2.18L43.12 0.06L40.93 0.06L2.18 0L0 0ZM4.37 4L38.75 4.06L35.5 40.06L21.56 43.93L7.56 40.06L4.37 4ZM9.18 10L10.5 24.93L27.62 24.93L27.06 31.37L21.56 32.87L21.5 32.87L16 31.37L15.68 27.25L10.68 27.25L11.37 35.18L21.5 38L21.56 38L31.68 35.18L33.06 20L15 20L14.56 14.93L33.5 14.93L33.93 10L9.18 10Z" fill="#FFFFFF" fill-opacity="1.000000" fill-rule="nonzero"/>
</svg>
