<svg width="18.333252" height="18.333328" viewBox="0 0 18.3333 18.3333" fill="none" xmlns="http://www.w3.org/2000/svg" xmlns:xlink="http://www.w3.org/1999/xlink">
	<desc>
			Created with Pixso.
	</desc>
	<defs/>
	<path id="Shape" d="M5 0C2.23 0 0 2.23 0 5L0 13.33C0 16.09 2.23 18.33 5 18.33L13.33 18.33C16.09 18.33 18.33 16.09 18.33 13.33L18.33 5C18.33 2.23 16.09 0 13.33 0L5 0ZM1.66 5C1.66 3.15 3.15 1.66 5 1.66L13.33 1.66C15.17 1.66 16.66 3.15 16.66 5L16.66 13.33C16.66 15.17 15.17 16.66 13.33 16.66L5 16.66C3.15 16.66 1.66 15.17 1.66 13.33L1.66 5ZM13.75 3.75C13.28 3.75 12.91 4.12 12.91 4.58C12.91 5.04 13.28 5.41 13.75 5.41L13.75 5.41C14.21 5.41 14.59 5.04 14.59 4.58C14.59 4.12 14.21 3.75 13.75 3.75L13.75 3.75ZM7.28 5.43C8.06 5.02 8.94 4.88 9.81 5C10.69 5.14 11.51 5.55 12.14 6.18C12.78 6.81 13.19 7.63 13.32 8.51C13.45 9.38 13.3 10.27 12.9 11.04C12.49 11.82 11.85 12.45 11.07 12.85C10.29 13.24 9.4 13.38 8.54 13.24C7.67 13.1 6.87 12.69 6.25 12.07C5.63 11.45 5.22 10.65 5.08 9.79C4.94 8.92 5.08 8.04 5.48 7.25C5.87 6.47 6.5 5.83 7.28 5.43ZM9.56 6.65C9.04 6.58 8.51 6.66 8.05 6.91C7.58 7.15 7.2 7.53 6.96 8C6.73 8.47 6.65 9 6.73 9.52C6.81 10.04 7.06 10.52 7.43 10.89C7.8 11.27 8.28 11.51 8.8 11.59C9.32 11.68 9.85 11.6 10.32 11.36C10.79 11.12 11.17 10.74 11.42 10.28C11.66 9.81 11.75 9.28 11.67 8.76C11.59 8.23 11.34 7.74 10.97 7.36C10.59 6.98 10.09 6.73 9.56 6.65Z" fill="#12F7D6" fill-opacity="1.000000" fill-rule="evenodd"/>
</svg>
