<svg width="48.000000" height="52.000000" viewBox="0 0 48 52" fill="none" xmlns="http://www.w3.org/2000/svg" xmlns:xlink="http://www.w3.org/1999/xlink">
	<desc>
			Created with Pixso.
	</desc>
	<defs/>
	<path id="Vector" d="M23.98 0C23.25 0 22.52 0.17 21.89 0.53L2.07 11.98C0.79 12.72 0 14.12 0 15.6L0 36.35C0 37.85 0.79 39.24 2.07 39.98L7.28 42.98C9.8 44.22 10.7 44.21 11.83 44.21C15.57 44.21 17.71 41.95 17.71 38.03L17.71 16.62C17.71 16.3 17.46 16.03 17.14 16.03L14.64 16.03C14.3 16.03 14.05 16.3 14.05 16.62L14.05 38.01C14.05 39.77 12.24 41.49 9.3 40.03L3.85 36.89C3.65 36.79 3.53 36.57 3.53 36.35L3.53 15.62C3.53 15.38 3.65 15.17 3.85 15.05L23.67 3.62C23.85 3.5 24.1 3.5 24.3 3.62L44.12 15.05C44.32 15.17 44.44 15.38 44.44 15.6L44.44 36.35C44.44 36.57 44.32 36.79 44.14 36.89L24.3 48.35C24.12 48.45 23.85 48.45 23.67 48.35L18.57 45.33C18.43 45.23 18.24 45.22 18.1 45.3C16.68 46.1 16.42 46.2 15.1 46.66C14.78 46.76 14.28 46.95 15.28 47.51L21.89 51.44C22.53 51.8 23.26 52 23.98 52C24.72 52 25.43 51.8 26.07 51.44L45.92 39.98C47.2 39.24 48 37.85 48 36.35L48 15.62C48 14.12 47.2 12.74 45.92 12L26.07 0.53C25.44 0.17 24.71 0 23.98 0ZM29.32 16.01C23.66 16.01 20.28 18.41 20.28 22.41C20.28 26.75 23.63 27.94 29.07 28.48C35.57 29.12 36.07 30.09 36.07 31.37C36.07 33.57 34.3 34.51 30.12 34.51C24.86 34.51 23.7 33.18 23.32 30.58C23.28 30.3 23.04 30.1 22.76 30.1L20.17 30.1C19.85 30.1 19.62 30.37 19.62 30.67C19.62 34.01 21.44 37.98 30.12 37.98C36.4 37.98 40 35.51 40 31.19C40 26.91 37.09 25.76 31.01 24.94C24.83 24.14 24.21 23.72 24.21 22.28C24.21 21.08 24.76 19.51 29.32 19.51C33.38 19.51 34.89 20.38 35.51 23.12C35.57 23.38 35.79 23.58 36.07 23.58L38.66 23.58C38.82 23.58 38.95 23.51 39.07 23.39C39.17 23.29 39.23 23.12 39.21 22.94C38.81 18.22 35.68 16.01 29.32 16.01Z" fill="#FFFFFF" fill-opacity="1.000000" fill-rule="nonzero"/>
</svg>
