<svg width="158.000000" height="10.000000" viewBox="0 0 158 10" fill="none" xmlns="http://www.w3.org/2000/svg" xmlns:xlink="http://www.w3.org/1999/xlink">
	<desc>
			Created with Pixso.
	</desc>
	<defs/>
	<path id="Line 22" d="M9.9 6Q9.63 7.43 8.53 8.53Q7.07 10 5 10Q2.92 10 1.46 8.53Q0 7.07 0 5Q0 2.92 1.46 1.46Q2.92 0 5 0Q7.07 0 8.53 1.46Q9.63 2.56 9.9 4L148.09 4Q148.36 2.56 149.46 1.46Q150.92 0 153 0Q155.07 0 156.53 1.46Q158 2.92 158 5Q158 7.07 156.53 8.53Q155.07 10 153 10Q150.92 10 149.46 8.53Q148.36 7.43 148.09 6L9.9 6Z" fill="#12F7D6" fill-opacity="1.000000" fill-rule="evenodd"/>
</svg>
