<svg width="12.767578" height="12.755798" viewBox="0 0 12.7676 12.7558" fill="none" xmlns="http://www.w3.org/2000/svg" xmlns:xlink="http://www.w3.org/1999/xlink">
	<desc>
			Created with Pixso.
	</desc>
	<defs/>
	<path id="Shape" d="M6.83 0.98C7.49 0.34 8.38 -0.01 9.29 0C10.21 0 11.09 0.37 11.74 1.02C12.39 1.67 12.75 2.55 12.76 3.46C12.77 4.38 12.42 5.27 11.78 5.93L11.77 5.93L10.02 7.68C9.67 8.04 9.24 8.31 8.77 8.49C8.3 8.66 7.8 8.74 7.3 8.7C6.8 8.66 6.31 8.52 5.87 8.28C5.43 8.04 5.05 7.71 4.75 7.31C4.55 7.05 4.6 6.68 4.86 6.49C5.12 6.3 5.49 6.35 5.68 6.61C5.88 6.87 6.14 7.1 6.43 7.26C6.72 7.42 7.05 7.51 7.38 7.54C7.71 7.56 8.05 7.51 8.36 7.4C8.68 7.28 8.96 7.1 9.2 6.86L10.94 5.11C11.37 4.67 11.6 4.08 11.6 3.47C11.59 2.86 11.35 2.28 10.91 1.85C10.48 1.41 9.89 1.17 9.28 1.16C8.67 1.16 8.08 1.39 7.64 1.81L6.64 2.81C6.42 3.04 6.05 3.03 5.82 2.81C5.59 2.58 5.59 2.21 5.82 1.98L6.83 0.98L6.83 0.98ZM3.99 4.26C4.46 4.08 4.96 4.01 5.46 4.05C5.96 4.08 6.45 4.22 6.89 4.47C7.33 4.71 7.71 5.04 8.01 5.44C8.21 5.7 8.15 6.06 7.89 6.26C7.64 6.45 7.27 6.4 7.08 6.14C6.88 5.87 6.62 5.65 6.33 5.49C6.04 5.33 5.71 5.23 5.38 5.21C5.04 5.19 4.71 5.23 4.39 5.35C4.08 5.47 3.8 5.65 3.56 5.89L1.81 7.63C1.39 8.07 1.16 8.66 1.16 9.27C1.17 9.88 1.41 10.47 1.85 10.9C2.28 11.33 2.86 11.58 3.47 11.58C4.08 11.59 4.67 11.36 5.11 10.93L6.11 9.94C6.33 9.71 6.7 9.71 6.93 9.94C7.16 10.17 7.16 10.54 6.93 10.76L5.93 11.76L5.93 11.77C5.27 12.41 4.38 12.76 3.46 12.75C2.55 12.74 1.67 12.37 1.02 11.73C0.37 11.08 0 10.2 0 9.28C-0.01 8.36 0.34 7.48 0.98 6.82L0.98 6.81L2.73 5.06C3.09 4.71 3.52 4.43 3.99 4.26Z" fill="#12F7D6" fill-opacity="1.000000" fill-rule="evenodd"/>
</svg>
