<svg width="11.666748" height="13.999878" viewBox="0 0 11.6667 13.9999" fill="none" xmlns="http://www.w3.org/2000/svg" xmlns:xlink="http://www.w3.org/1999/xlink">
	<desc>
			Created with Pixso.
	</desc>
	<defs/>
	<path id="Shape" d="M5.83 13.41C5.51 13.9 5.5 13.9 5.5 13.9L5.83 13.41ZM6.15 13.9L6.15 13.9L6.16 13.89L6.17 13.88C6.18 13.88 6.2 13.87 6.22 13.85C6.26 13.82 6.32 13.78 6.4 13.73C6.55 13.62 6.76 13.46 7.01 13.26C7.52 12.85 8.2 12.27 8.88 11.55C10.21 10.14 11.66 8.1 11.66 5.83C11.66 4.28 11.05 2.8 9.95 1.7C8.86 0.61 7.38 0 5.83 0C4.28 0 2.8 0.61 1.7 1.7C0.61 2.8 0 4.28 0 5.83C0 8.1 1.44 10.14 2.78 11.55C3.46 12.27 4.14 12.85 4.64 13.26C4.9 13.46 5.11 13.62 5.26 13.73C5.34 13.78 5.4 13.82 5.44 13.85C5.46 13.87 5.47 13.88 5.49 13.88L5.5 13.89L5.5 13.9L5.5 13.9C5.7 14.03 5.96 14.03 6.15 13.9ZM5.83 1.16C4.59 1.16 3.4 1.65 2.53 2.53C1.65 3.4 1.16 4.59 1.16 5.83C1.16 7.64 2.34 9.39 3.63 10.75C4.26 11.42 4.89 11.96 5.37 12.34C5.55 12.49 5.7 12.6 5.83 12.7C5.95 12.6 6.11 12.49 6.29 12.34C6.76 11.96 7.4 11.42 8.03 10.75C9.32 9.39 10.5 7.64 10.5 5.83C10.5 4.59 10 3.4 9.13 2.53C8.25 1.65 7.07 1.16 5.83 1.16ZM3.5 5.83C3.5 4.54 4.54 3.5 5.83 3.5C7.12 3.5 8.16 4.54 8.16 5.83C8.16 7.12 7.12 8.16 5.83 8.16C4.54 8.16 3.5 7.12 3.5 5.83ZM5.83 4.66C5.18 4.66 4.66 5.18 4.66 5.83C4.66 6.47 5.18 7 5.83 7C6.47 7 7 6.47 7 5.83C7 5.18 6.47 4.66 5.83 4.66ZM6.15 13.9L5.83 13.41L6.15 13.9Z" fill="#12F7D6" fill-opacity="1.000000" fill-rule="evenodd"/>
</svg>
