<svg width="21.333252" height="29.333252" viewBox="0 0 21.3333 29.3333" fill="none" xmlns="http://www.w3.org/2000/svg" xmlns:xlink="http://www.w3.org/1999/xlink">
	<desc>
			Created with Pixso.
	</desc>
	<defs/>
	<path id="Shape" d="M0 4C0 1.79 1.79 0 4 0L17.33 0C19.54 0 21.33 1.79 21.33 4L21.33 25.33C21.33 27.54 19.54 29.33 17.33 29.33L4 29.33C1.79 29.33 0 27.54 0 25.33L0 4ZM4 2.66C3.26 2.66 2.66 3.26 2.66 4L2.66 25.33C2.66 26.06 3.26 26.66 4 26.66L17.33 26.66C18.06 26.66 18.66 26.06 18.66 25.33L18.66 4C18.66 3.26 18.06 2.66 17.33 2.66L4 2.66ZM9.33 22.66C9.33 21.93 9.93 21.33 10.66 21.33L10.67 21.33C11.41 21.33 12.01 21.93 12.01 22.66C12.01 23.4 11.41 24 10.67 24L10.66 24C9.93 24 9.33 23.4 9.33 22.66Z" fill="#292F36" fill-opacity="1.000000" fill-rule="evenodd"/>
</svg>
