<svg width="14.000000" height="14.000000" viewBox="0 0 14 14" fill="none" xmlns="http://www.w3.org/2000/svg" xmlns:xlink="http://www.w3.org/1999/xlink">
	<desc>
			Created with Pixso.
	</desc>
	<defs>
		<clipPath id="clip50_2210">
			<rect id="icon-briefcase" width="14.000000" height="14.000000" fill="white" fill-opacity="0"/>
		</clipPath>
	</defs>
	<g clip-path="url(#clip50_2210)">
		<path id="Shape" d="M5.83 1.16C5.36 1.16 4.92 1.35 4.59 1.67C4.26 2 4.08 2.45 4.08 2.91L4.08 3.49L2.33 3.49C1.36 3.49 0.58 4.28 0.58 5.24L0.58 11.08C0.58 12.04 1.36 12.83 2.33 12.83L11.66 12.83C12.63 12.83 13.41 12.04 13.41 11.08L13.41 5.24C13.41 4.28 12.63 3.49 11.66 3.49L9.91 3.49L9.91 2.91C9.91 2.45 9.73 2 9.4 1.67C9.07 1.35 8.63 1.16 8.16 1.16L5.83 1.16ZM8.75 3.49L8.75 2.91C8.75 2.76 8.68 2.61 8.57 2.5C8.46 2.39 8.32 2.33 8.16 2.33L5.83 2.33C5.67 2.33 5.53 2.39 5.42 2.5C5.31 2.61 5.25 2.76 5.25 2.91L5.25 3.49L8.75 3.49ZM5.25 4.66L8.75 4.66L8.75 11.66L5.25 11.66L5.25 4.66ZM4.08 4.66L2.33 4.66C2.01 4.66 1.75 4.92 1.75 5.24L1.75 11.08C1.75 11.4 2.01 11.66 2.33 11.66L4.08 11.66L4.08 4.66ZM9.91 11.66L9.91 4.66L11.66 4.66C11.98 4.66 12.25 4.92 12.25 5.24L12.25 11.08C12.25 11.4 11.98 11.66 11.66 11.66L9.91 11.66Z" fill="#12F7D6" fill-opacity="1.000000" fill-rule="evenodd"/>
	</g>
</svg>
