<svg width="24.000000" height="24.000000" viewBox="0 0 24 24" fill="none" xmlns="http://www.w3.org/2000/svg" xmlns:xlink="http://www.w3.org/1999/xlink">
	<desc>
			Created with Pixso.
	</desc>
	<defs>
		<clipPath id="clip58_6321">
			<rect id="Component 2" width="24.000000" height="24.000000" fill="white" fill-opacity="0"/>
		</clipPath>
	</defs>
	<rect id="Component 2" width="24.000000" height="24.000000" fill="#FFFFFF" fill-opacity="0"/>
	<g clip-path="url(#clip58_6321)">
		<path id="Vector" d="M20 20L16.22 16.21M16.21 16.21C14.87 17.56 13.05 18.31 11.15 18.31C9.25 18.31 7.43 17.56 6.09 16.21C4.75 14.87 4 13.05 4 11.15C4 9.25 4.75 7.43 6.09 6.09C7.43 4.75 9.25 4 11.15 4C13.05 4 14.87 4.75 16.21 6.09C17.56 7.43 18.31 9.25 18.31 11.15C18.31 13.05 17.56 14.87 16.21 16.21Z" stroke="#000000" stroke-opacity="1.000000" stroke-width="1.500000" stroke-linecap="round"/>
	</g>
</svg>
