<svg width="56.000000" height="50.607178" viewBox="0 0 56 50.6072" fill="none" xmlns="http://www.w3.org/2000/svg" xmlns:xlink="http://www.w3.org/1999/xlink">
	<desc>
			Created with Pixso.
	</desc>
	<defs/>
	<path id="Vector" d="M18.8 0.02C17.11 -0.09 15.45 0.21 14 1.05C12.05 2.17 10.76 4.08 10.07 6.29C9.37 8.49 9.21 11.03 9.46 13.8C9.49 14.08 9.54 14.38 9.57 14.66C9.31 14.78 9.03 14.88 8.77 15C6.24 16.16 4.13 17.57 2.57 19.28C1 20.98 0 23.06 0 25.3C0 27.54 1 29.62 2.57 31.32C4.13 33.03 6.24 34.43 8.77 35.6C9.03 35.72 9.31 35.82 9.57 35.94C9.54 36.22 9.49 36.51 9.46 36.79C9.21 39.57 9.37 42.11 10.07 44.31C10.76 46.51 12.05 48.43 14 49.55C15.94 50.67 18.24 50.83 20.5 50.33C22.75 49.83 25.03 48.7 27.3 47.1C27.53 46.93 27.76 46.74 28 46.57C28.23 46.74 28.46 46.93 28.69 47.1C30.96 48.7 33.24 49.83 35.5 50.33C37.75 50.83 40.05 50.67 42 49.55C43.94 48.43 45.23 46.51 45.92 44.31C46.62 42.11 46.78 39.57 46.53 36.79C46.5 36.51 46.45 36.22 46.42 35.94C46.68 35.82 46.96 35.72 47.22 35.6C49.75 34.43 51.86 33.03 53.42 31.32C54.99 29.62 56 27.54 56 25.3C56 23.06 54.99 20.98 53.42 19.28C51.86 17.57 49.75 16.16 47.22 15C46.96 14.88 46.68 14.78 46.42 14.66C46.45 14.38 46.5 14.08 46.53 13.8C46.78 11.03 46.62 8.49 45.92 6.29C45.23 4.08 43.94 2.17 42 1.05C40.05 -0.07 37.75 -0.24 35.5 0.26C33.24 0.76 30.96 1.9 28.69 3.5C28.46 3.66 28.23 3.85 28 4.03C27.76 3.85 27.53 3.66 27.3 3.5C25.03 1.9 22.75 0.76 20.5 0.26C19.93 0.14 19.37 0.05 18.8 0.02ZM18.54 4C18.88 4.03 19.25 4.08 19.63 4.17C21.14 4.51 22.95 5.35 24.86 6.68C23.27 8.19 21.71 9.91 20.21 11.83C17.81 12.16 15.54 12.65 13.44 13.28C13.24 10.96 13.41 8.97 13.88 7.49C14.35 5.98 15.07 5.05 16 4.51C16.69 4.11 17.52 3.92 18.54 4ZM37.45 4C38.47 3.92 39.3 4.11 40 4.51C40.92 5.05 41.64 5.98 42.11 7.49C42.58 8.97 42.75 10.96 42.55 13.28C40.45 12.65 38.18 12.16 35.78 11.83C34.28 9.91 32.72 8.19 31.13 6.68C33.04 5.35 34.85 4.51 36.36 4.17C36.75 4.08 37.11 4.03 37.45 4ZM28 9.22C28.7 9.87 29.4 10.59 30.1 11.35C29.4 11.32 28.71 11.3 28 11.3C27.28 11.3 26.59 11.32 25.89 11.35C26.59 10.59 27.29 9.87 28 9.22ZM28 15.3C29.92 15.3 31.79 15.41 33.59 15.6C34.66 17.07 35.69 18.63 36.66 20.3C37.62 21.97 38.46 23.65 39.19 25.3C38.46 26.95 37.62 28.63 36.66 30.3C35.69 31.97 34.66 33.53 33.59 34.99C31.79 35.19 29.92 35.3 28 35.3C26.07 35.3 24.2 35.19 22.4 34.99C21.33 33.53 20.3 31.97 19.33 30.3C18.37 28.63 17.53 26.95 16.8 25.3C17.53 23.65 18.37 21.97 19.33 20.3C20.3 18.63 21.33 17.07 22.4 15.6C24.2 15.41 26.07 15.3 28 15.3ZM16.96 16.5C16.59 17.09 16.23 17.68 15.87 18.3C15.51 18.91 15.19 19.53 14.86 20.15C14.55 19.16 14.28 18.19 14.07 17.26C14.98 16.98 15.96 16.73 16.96 16.5ZM39.03 16.5C40.03 16.73 41.01 16.98 41.92 17.26C41.71 18.19 41.44 19.16 41.13 20.15C40.8 19.53 40.48 18.91 40.12 18.3C39.76 17.68 39.4 17.09 39.03 16.5ZM10.3 18.7C10.81 20.84 11.52 23.05 12.44 25.3C11.52 27.55 10.81 29.76 10.3 31.89C8.2 30.9 6.56 29.76 5.51 28.62C4.44 27.45 4 26.37 4 25.3C4 24.23 4.44 23.15 5.51 21.98C6.56 20.84 8.2 19.69 10.3 18.7ZM45.69 18.7C47.79 19.69 49.43 20.84 50.48 21.98C51.55 23.15 52 24.23 52 25.3C52 26.37 51.55 27.45 50.48 28.62C49.43 29.76 47.79 30.9 45.69 31.89C45.18 29.76 44.47 27.55 43.55 25.3C44.47 23.05 45.18 20.84 45.69 18.7ZM28 19.3C24.71 19.3 22 22.01 22 25.3C22 28.59 24.71 31.3 28 31.3C31.29 31.3 34 28.59 34 25.3C34 22.01 31.29 19.3 28 19.3ZM28 23.3C29.12 23.3 30 24.17 30 25.3C30 26.43 29.12 27.3 28 27.3C26.87 27.3 26 26.43 26 25.3C26 24.17 26.87 23.3 28 23.3ZM14.86 30.45C15.19 31.07 15.51 31.68 15.87 32.3C16.23 32.91 16.59 33.51 16.96 34.1C15.96 33.87 14.98 33.62 14.07 33.34C14.28 32.41 14.55 31.43 14.86 30.45ZM41.13 30.45C41.44 31.43 41.71 32.41 41.92 33.34C41.01 33.62 40.03 33.87 39.03 34.1C39.4 33.51 39.76 32.91 40.12 32.3C40.48 31.68 40.8 31.07 41.13 30.45ZM13.44 37.32C15.54 37.94 17.81 38.44 20.21 38.77C21.71 40.69 23.27 42.41 24.86 43.92C22.95 45.24 21.14 46.09 19.63 46.43C18.08 46.77 16.92 46.62 16 46.08C15.07 45.55 14.35 44.62 13.88 43.11C13.41 41.63 13.24 39.64 13.44 37.32ZM42.55 37.32C42.75 39.64 42.58 41.63 42.11 43.11C41.64 44.62 40.92 45.55 40 46.08C39.07 46.62 37.91 46.77 36.36 46.43C34.85 46.09 33.04 45.24 31.13 43.92C32.72 42.41 34.28 40.69 35.78 38.77C38.18 38.44 40.45 37.94 42.55 37.32ZM25.89 39.25C26.59 39.28 27.28 39.3 28 39.3C28.71 39.3 29.4 39.28 30.1 39.25C29.4 40.01 28.7 40.73 28 41.38C27.29 40.73 26.59 40.01 25.89 39.25Z" fill="#FFFFFF" fill-opacity="1.000000" fill-rule="nonzero"/>
</svg>
